<?xml version="1.0" standalone="no"?>
<!DOCTYPE svg PUBLIC "-//W3C//DTD SVG 20010904//EN"
 "http://www.w3.org/TR/2001/REC-SVG-20010904/DTD/svg10.dtd">
<svg version="1.0" xmlns="http://www.w3.org/2000/svg"
 width="700.000000pt" height="700.000000pt" viewBox="0 0 700.000000 700.000000"
 preserveAspectRatio="xMidYMid meet">
<metadata>
Created by potrace 1.14, written by Peter Selinger 2001-2017
</metadata>
<g transform="translate(0.000000,700.000000) scale(0.100000,-0.100000)"
fill="#000000" stroke="none">
<path d="M799 5615 c-14 -8 -31 -27 -38 -42 -8 -21 -11 -476 -9 -1776 l3
-1749 28 -24 28 -24 940 0 c516 0 939 -2 939 -5 0 -3 -17 -124 -55 -402 l-6
-42 -252 -3 c-228 -3 -255 -5 -280 -22 -45 -30 -57 -65 -57 -165 0 -83 2 -92
27 -122 53 -62 -17 -59 1260 -59 1126 0 1170 1 1210 19 59 27 73 60 73 174 0
82 -3 98 -22 122 -40 50 -66 55 -326 55 l-239 0 -12 92 c-15 121 -40 296 -47
330 l-6 28 200 0 199 0 82 -49 c332 -200 734 -231 1101 -84 47 19 106 48 133
64 26 16 51 29 55 29 5 0 147 -138 317 -306 178 -176 325 -314 348 -326 125
-63 296 -8 359 115 29 59 35 151 13 218 -17 49 -44 80 -329 367 -171 172 -312
317 -314 321 -1 4 16 39 38 77 90 156 143 372 142 584 0 208 -36 362 -126 546
-60 121 -117 203 -213 305 l-63 66 0 822 0 823 -29 29 -29 29 -2509 0 c-2147
-1 -2512 -3 -2534 -15z m4831 -904 l0 -600 -52 23 c-531 233 -1154 71 -1496
-389 -68 -91 -153 -257 -187 -365 -84 -268 -69 -606 39 -852 l16 -38 -1465 0
-1465 0 0 1403 c0 772 3 1407 7 1410 3 4 1041 7 2305 7 l2298 0 0 -599z m-424
-796 c310 -53 551 -230 685 -500 75 -153 93 -230 92 -410 0 -177 -17 -254 -88
-398 -194 -397 -636 -596 -1067 -481 -325 87 -577 353 -654 690 -26 112 -24
292 4 401 91 355 363 619 707 687 153 29 202 31 321 11z"/>
<path d="M2524 5192 c-111 -40 -183 -133 -193 -251 l-6 -65 -170 -98 c-268
-155 -256 -150 -285 -128 -61 46 -198 52 -277 12 -54 -28 -118 -102 -137 -159
-44 -128 12 -270 132 -339 l32 -18 0 -247 0 -247 -44 -26 c-187 -110 -175
-396 21 -492 79 -39 166 -40 244 -1 31 15 59 27 63 27 4 0 101 -54 216 -121
l210 -121 0 -51 c0 -61 42 -157 86 -199 78 -73 221 -96 316 -50 93 45 157 145
158 243 l0 56 198 113 c108 63 204 118 213 123 12 7 32 2 74 -19 156 -76 349
7 395 170 16 57 9 160 -14 204 -25 49 -75 101 -118 123 l-38 19 0 248 0 248
31 18 c52 31 99 77 122 120 30 57 31 193 2 251 -47 95 -130 147 -245 153 -67
3 -81 0 -132 -26 l-57 -29 -216 124 -215 125 0 57 c0 178 -197 314 -366 253z
m144 -136 c95 -50 115 -159 41 -233 -84 -87 -239 -22 -239 101 0 103 111 177
198 132z m-116 -406 c65 -14 131 -5 187 26 24 13 48 24 52 24 5 0 85 -44 177
-97 92 -53 186 -108 210 -121 40 -23 42 -26 42 -72 0 -96 46 -178 131 -233
l49 -32 0 -247 0 -246 -45 -27 c-45 -26 -97 -86 -117 -135 -6 -14 -13 -54 -17
-89 l-6 -63 -205 -119 c-113 -65 -210 -119 -217 -119 -6 0 -28 10 -49 22 -26
15 -58 23 -114 26 -68 4 -85 1 -135 -22 -32 -14 -61 -26 -66 -26 -4 0 -48 23
-96 51 -48 28 -143 82 -210 121 l-123 69 0 57 c-1 94 -59 191 -142 233 l-38
19 0 250 c0 246 0 249 21 255 38 12 111 88 135 140 16 33 24 68 24 105 l0 56
218 125 217 125 33 -22 c18 -12 56 -27 84 -34z m1028 -118 c37 -27 72 -100 64
-137 -15 -74 -74 -125 -144 -125 -151 0 -195 207 -57 271 48 22 98 19 137 -9z
m-1800 -17 c36 -19 60 -62 60 -110 0 -26 -9 -45 -33 -71 -61 -67 -159 -50
-193 33 -44 103 65 200 166 148z m10 -1005 c95 -49 100 -175 9 -243 -61 -45
-151 -25 -196 42 -46 69 -19 165 57 203 46 23 82 23 130 -2z m1768 6 c98 -51
116 -166 37 -235 -64 -56 -147 -50 -205 15 -94 107 42 286 168 220z m-869
-525 c90 -63 85 -192 -9 -242 -65 -35 -132 -20 -184 41 -46 56 -31 154 31 198
48 34 116 35 162 3z"/>
<path d="M5258 3093 l-288 -287 -183 182 c-175 174 -185 182 -222 182 -35 0
-46 -7 -102 -64 -55 -57 -63 -70 -63 -103 0 -37 11 -49 268 -306 253 -253 269
-267 304 -267 35 0 54 17 402 363 232 231 367 372 371 389 10 41 0 60 -74 132
-52 49 -76 66 -97 66 -24 0 -76 -47 -316 -287z"/>
</g>
</svg>
